<mxfile host="app.diagrams.net" agent="Mozilla/5.0 (Windows NT 10.0; Win64; x64) AppleWebKit/537.36 (KHTML, like Gecko) Chrome/134.0.0.0 Safari/537.36" version="24.8.1">
  <diagram name="Trang-1" id="MRNnaC4Dazb6olyScCS0">
    <mxGraphModel dx="1961" dy="637" grid="1" gridSize="10" guides="1" tooltips="1" connect="1" arrows="1" fold="1" page="1" pageScale="1" pageWidth="827" pageHeight="1169" math="0" shadow="0">
      <root>
        <mxCell id="0" />
        <mxCell id="1" parent="0" />
        <mxCell id="eKWk6Eo748Z128dyiO6--18" style="edgeStyle=orthogonalEdgeStyle;rounded=0;orthogonalLoop=1;jettySize=auto;html=1;exitX=0.5;exitY=1;exitDx=0;exitDy=0;entryX=0.5;entryY=0;entryDx=0;entryDy=0;" edge="1" parent="1" source="eKWk6Eo748Z128dyiO6--1" target="eKWk6Eo748Z128dyiO6--8">
          <mxGeometry relative="1" as="geometry">
            <Array as="points">
              <mxPoint x="390" y="240" />
              <mxPoint x="70" y="240" />
            </Array>
          </mxGeometry>
        </mxCell>
        <mxCell id="eKWk6Eo748Z128dyiO6--19" style="edgeStyle=orthogonalEdgeStyle;rounded=0;orthogonalLoop=1;jettySize=auto;html=1;exitX=0.5;exitY=1;exitDx=0;exitDy=0;entryX=0.5;entryY=0;entryDx=0;entryDy=0;" edge="1" parent="1" source="eKWk6Eo748Z128dyiO6--1" target="eKWk6Eo748Z128dyiO6--2">
          <mxGeometry relative="1" as="geometry" />
        </mxCell>
        <mxCell id="eKWk6Eo748Z128dyiO6--20" style="edgeStyle=orthogonalEdgeStyle;rounded=0;orthogonalLoop=1;jettySize=auto;html=1;exitX=0.75;exitY=1;exitDx=0;exitDy=0;entryX=0.5;entryY=0;entryDx=0;entryDy=0;" edge="1" parent="1" source="eKWk6Eo748Z128dyiO6--1" target="eKWk6Eo748Z128dyiO6--13">
          <mxGeometry relative="1" as="geometry">
            <Array as="points">
              <mxPoint x="390" y="140" />
              <mxPoint x="390" y="240" />
              <mxPoint x="720" y="240" />
            </Array>
          </mxGeometry>
        </mxCell>
        <mxCell id="eKWk6Eo748Z128dyiO6--21" style="edgeStyle=orthogonalEdgeStyle;rounded=0;orthogonalLoop=1;jettySize=auto;html=1;exitX=0.25;exitY=1;exitDx=0;exitDy=0;entryX=0.5;entryY=0;entryDx=0;entryDy=0;" edge="1" parent="1" source="eKWk6Eo748Z128dyiO6--1" target="eKWk6Eo748Z128dyiO6--6">
          <mxGeometry relative="1" as="geometry">
            <Array as="points">
              <mxPoint x="390" y="140" />
              <mxPoint x="390" y="240" />
              <mxPoint x="290" y="240" />
            </Array>
          </mxGeometry>
        </mxCell>
        <mxCell id="eKWk6Eo748Z128dyiO6--1" value="Hệ thống quản lý ga tàu" style="rounded=0;whiteSpace=wrap;html=1;" vertex="1" parent="1">
          <mxGeometry x="330" y="90" width="120" height="50" as="geometry" />
        </mxCell>
        <mxCell id="eKWk6Eo748Z128dyiO6--28" style="edgeStyle=orthogonalEdgeStyle;rounded=0;orthogonalLoop=1;jettySize=auto;html=1;exitX=0;exitY=0.5;exitDx=0;exitDy=0;entryX=0;entryY=0.5;entryDx=0;entryDy=0;" edge="1" parent="1" source="eKWk6Eo748Z128dyiO6--2" target="eKWk6Eo748Z128dyiO6--11">
          <mxGeometry relative="1" as="geometry" />
        </mxCell>
        <mxCell id="eKWk6Eo748Z128dyiO6--29" style="edgeStyle=orthogonalEdgeStyle;rounded=0;orthogonalLoop=1;jettySize=auto;html=1;exitX=0;exitY=0.5;exitDx=0;exitDy=0;entryX=0;entryY=0.5;entryDx=0;entryDy=0;" edge="1" parent="1" source="eKWk6Eo748Z128dyiO6--2" target="eKWk6Eo748Z128dyiO6--12">
          <mxGeometry relative="1" as="geometry" />
        </mxCell>
        <mxCell id="eKWk6Eo748Z128dyiO6--2" value="quản lý kĩ thuật" style="rounded=0;whiteSpace=wrap;html=1;" vertex="1" parent="1">
          <mxGeometry x="450" y="340" width="120" height="50" as="geometry" />
        </mxCell>
        <mxCell id="eKWk6Eo748Z128dyiO6--3" value="cập nhật thông tin lên hệ thống" style="rounded=0;whiteSpace=wrap;html=1;" vertex="1" parent="1">
          <mxGeometry x="230" y="640" width="120" height="50" as="geometry" />
        </mxCell>
        <mxCell id="eKWk6Eo748Z128dyiO6--4" value="soát vé" style="rounded=0;whiteSpace=wrap;html=1;" vertex="1" parent="1">
          <mxGeometry x="230" y="540" width="120" height="50" as="geometry" />
        </mxCell>
        <mxCell id="eKWk6Eo748Z128dyiO6--5" value="bán, trả vé" style="rounded=0;whiteSpace=wrap;html=1;" vertex="1" parent="1">
          <mxGeometry x="230" y="440" width="120" height="50" as="geometry" />
        </mxCell>
        <mxCell id="eKWk6Eo748Z128dyiO6--25" style="edgeStyle=orthogonalEdgeStyle;rounded=0;orthogonalLoop=1;jettySize=auto;html=1;exitX=0;exitY=0.5;exitDx=0;exitDy=0;entryX=0;entryY=0.5;entryDx=0;entryDy=0;" edge="1" parent="1" source="eKWk6Eo748Z128dyiO6--6" target="eKWk6Eo748Z128dyiO6--5">
          <mxGeometry relative="1" as="geometry" />
        </mxCell>
        <mxCell id="eKWk6Eo748Z128dyiO6--26" style="edgeStyle=orthogonalEdgeStyle;rounded=0;orthogonalLoop=1;jettySize=auto;html=1;exitX=0;exitY=0.5;exitDx=0;exitDy=0;entryX=0;entryY=0.5;entryDx=0;entryDy=0;" edge="1" parent="1" source="eKWk6Eo748Z128dyiO6--6" target="eKWk6Eo748Z128dyiO6--4">
          <mxGeometry relative="1" as="geometry" />
        </mxCell>
        <mxCell id="eKWk6Eo748Z128dyiO6--27" style="edgeStyle=orthogonalEdgeStyle;rounded=0;orthogonalLoop=1;jettySize=auto;html=1;exitX=0;exitY=0.5;exitDx=0;exitDy=0;entryX=0;entryY=0.5;entryDx=0;entryDy=0;" edge="1" parent="1" source="eKWk6Eo748Z128dyiO6--6" target="eKWk6Eo748Z128dyiO6--3">
          <mxGeometry relative="1" as="geometry" />
        </mxCell>
        <mxCell id="eKWk6Eo748Z128dyiO6--6" value="quản lý đội vé" style="rounded=0;whiteSpace=wrap;html=1;" vertex="1" parent="1">
          <mxGeometry x="230" y="340" width="120" height="50" as="geometry" />
        </mxCell>
        <mxCell id="eKWk6Eo748Z128dyiO6--7" value="cập nhật lịch trình" style="rounded=0;whiteSpace=wrap;html=1;" vertex="1" parent="1">
          <mxGeometry x="10" y="640" width="120" height="50" as="geometry" />
        </mxCell>
        <mxCell id="eKWk6Eo748Z128dyiO6--22" style="edgeStyle=orthogonalEdgeStyle;rounded=0;orthogonalLoop=1;jettySize=auto;html=1;exitX=0;exitY=0.5;exitDx=0;exitDy=0;entryX=0;entryY=0.5;entryDx=0;entryDy=0;" edge="1" parent="1" source="eKWk6Eo748Z128dyiO6--8" target="eKWk6Eo748Z128dyiO6--10">
          <mxGeometry relative="1" as="geometry" />
        </mxCell>
        <mxCell id="eKWk6Eo748Z128dyiO6--23" style="edgeStyle=orthogonalEdgeStyle;rounded=0;orthogonalLoop=1;jettySize=auto;html=1;exitX=0;exitY=0.5;exitDx=0;exitDy=0;entryX=0;entryY=0.5;entryDx=0;entryDy=0;" edge="1" parent="1" source="eKWk6Eo748Z128dyiO6--8" target="eKWk6Eo748Z128dyiO6--9">
          <mxGeometry relative="1" as="geometry" />
        </mxCell>
        <mxCell id="eKWk6Eo748Z128dyiO6--24" style="edgeStyle=orthogonalEdgeStyle;rounded=0;orthogonalLoop=1;jettySize=auto;html=1;exitX=0;exitY=0.5;exitDx=0;exitDy=0;entryX=0;entryY=0.5;entryDx=0;entryDy=0;" edge="1" parent="1" source="eKWk6Eo748Z128dyiO6--8" target="eKWk6Eo748Z128dyiO6--7">
          <mxGeometry relative="1" as="geometry" />
        </mxCell>
        <mxCell id="eKWk6Eo748Z128dyiO6--8" value="quản lý hoạt động" style="rounded=0;whiteSpace=wrap;html=1;" vertex="1" parent="1">
          <mxGeometry x="10" y="340" width="120" height="50" as="geometry" />
        </mxCell>
        <mxCell id="eKWk6Eo748Z128dyiO6--9" value="cập nhật chuyến tàu" style="rounded=0;whiteSpace=wrap;html=1;" vertex="1" parent="1">
          <mxGeometry x="10" y="540" width="120" height="50" as="geometry" />
        </mxCell>
        <mxCell id="eKWk6Eo748Z128dyiO6--10" value="cập nhật bảng giá&amp;nbsp;" style="rounded=0;whiteSpace=wrap;html=1;" vertex="1" parent="1">
          <mxGeometry x="10" y="440" width="120" height="50" as="geometry" />
        </mxCell>
        <mxCell id="eKWk6Eo748Z128dyiO6--11" value="sửa chữa tàu" style="rounded=0;whiteSpace=wrap;html=1;" vertex="1" parent="1">
          <mxGeometry x="450" y="440" width="120" height="50" as="geometry" />
        </mxCell>
        <mxCell id="eKWk6Eo748Z128dyiO6--12" value="quản lý dữ liệu phần mềm" style="rounded=0;whiteSpace=wrap;html=1;" vertex="1" parent="1">
          <mxGeometry x="450" y="540" width="120" height="50" as="geometry" />
        </mxCell>
        <mxCell id="eKWk6Eo748Z128dyiO6--30" style="edgeStyle=orthogonalEdgeStyle;rounded=0;orthogonalLoop=1;jettySize=auto;html=1;exitX=0;exitY=0.5;exitDx=0;exitDy=0;entryX=0;entryY=0.5;entryDx=0;entryDy=0;" edge="1" parent="1" source="eKWk6Eo748Z128dyiO6--13" target="eKWk6Eo748Z128dyiO6--15">
          <mxGeometry relative="1" as="geometry" />
        </mxCell>
        <mxCell id="eKWk6Eo748Z128dyiO6--31" style="edgeStyle=orthogonalEdgeStyle;rounded=0;orthogonalLoop=1;jettySize=auto;html=1;exitX=0;exitY=0.5;exitDx=0;exitDy=0;entryX=0;entryY=0.5;entryDx=0;entryDy=0;" edge="1" parent="1" source="eKWk6Eo748Z128dyiO6--13" target="eKWk6Eo748Z128dyiO6--14">
          <mxGeometry relative="1" as="geometry" />
        </mxCell>
        <mxCell id="eKWk6Eo748Z128dyiO6--13" value="quản lý tài chính" style="rounded=0;whiteSpace=wrap;html=1;" vertex="1" parent="1">
          <mxGeometry x="660" y="340" width="120" height="50" as="geometry" />
        </mxCell>
        <mxCell id="eKWk6Eo748Z128dyiO6--14" value="báo cáo doanh thu" style="rounded=0;whiteSpace=wrap;html=1;" vertex="1" parent="1">
          <mxGeometry x="660" y="540" width="120" height="50" as="geometry" />
        </mxCell>
        <mxCell id="eKWk6Eo748Z128dyiO6--15" value="thống kê doanh thu" style="rounded=0;whiteSpace=wrap;html=1;" vertex="1" parent="1">
          <mxGeometry x="660" y="440" width="120" height="50" as="geometry" />
        </mxCell>
      </root>
    </mxGraphModel>
  </diagram>
</mxfile>
